<?xml version="1.0" standalone="no"?>
<!DOCTYPE svg PUBLIC "-//W3C//DTD SVG 20010904//EN"
 "http://www.w3.org/TR/2001/REC-SVG-20010904/DTD/svg10.dtd">
<svg version="1.0" xmlns="http://www.w3.org/2000/svg"
 width="383.000000pt" height="383.000000pt" viewBox="0 0 383.000000 383.000000"
 preserveAspectRatio="xMidYMid meet">
<metadata>
Created by potrace 1.14, written by Peter Selinger 2001-2017
</metadata>
<g transform="translate(0.000000,383.000000) scale(0.100000,-0.100000)"
fill="#000000" stroke="none">
<path d="M247 3822 c6 -4 248 -8 539 -10 290 -1 532 -6 538 -9 28 -18 461 -21
525 -3 37 10 216 9 1171 -5 179 -2 420 -7 537 -10 181 -5 217 -4 243 10 16 8
30 20 30 25 0 7 -637 10 -1797 10 -989 0 -1793 -4 -1786 -8z"/>
<path d="M2756 3235 c-11 -8 -28 -15 -39 -15 -28 0 -77 -32 -77 -51 0 -8 11
-21 25 -27 14 -6 25 -16 25 -22 0 -6 -11 -16 -25 -22 -14 -6 -25 -17 -25 -25
0 -27 103 -220 127 -239 17 -13 17 -15 -5 -33 -24 -21 -66 -35 -202 -71 -47
-12 -114 -31 -149 -41 -36 -10 -68 -16 -72 -13 -4 2 -10 23 -14 47 -33 194
-231 332 -428 297 -149 -27 -240 -95 -298 -222 -10 -21 -27 -39 -41 -42 -108
-30 -149 -56 -153 -99 -2 -15 1 -27 6 -27 5 0 9 -6 9 -13 0 -21 52 -45 119
-56 45 -7 67 -16 80 -33 35 -44 36 -43 -181 -98 l-127 -33 -65 32 c-84 40
-125 40 -241 -4 -159 -59 -163 -63 -144 -112 5 -14 6 -30 2 -34 -11 -10 -132
-49 -154 -49 -10 0 -21 -4 -24 -10 -3 -5 -17 -10 -29 -10 -27 0 -51 -24 -41
-40 10 -16 42 -12 145 16 52 14 114 29 138 33 43 9 52 4 147 -71 6 -5 42 -32
80 -60 39 -28 86 -64 105 -80 70 -57 125 -86 187 -97 58 -11 68 -4 77 52 19
118 83 276 147 364 36 48 115 113 137 113 12 0 64 -84 75 -120 4 -14 18 -96
32 -183 14 -87 32 -186 40 -220 7 -34 16 -114 19 -177 16 -306 16 -348 1 -406
-23 -88 -20 -246 6 -330 12 -38 30 -80 40 -93 25 -31 25 -56 2 -46 -10 4 -54
14 -98 21 -44 8 -110 23 -146 35 -70 22 -136 23 -131 2 1 -9 -10 -13 -33 -13
-21 0 -37 -6 -43 -16 -7 -13 -30 -16 -146 -15 -123 1 -140 -1 -166 -19 -15
-11 -35 -20 -44 -20 -9 0 -16 -4 -16 -10 0 -5 -13 -10 -30 -10 -22 0 -28 -4
-24 -15 4 -8 1 -15 -5 -15 -6 0 -11 4 -11 10 0 5 -7 7 -17 3 -14 -5 -13 -8 6
-15 36 -13 110 -17 113 -7 2 7 12 7 28 1 14 -5 58 -7 98 -3 39 4 79 3 88 -2 9
-5 20 -5 27 1 7 5 29 13 51 16 33 6 38 5 32 -9 -3 -9 -6 -19 -6 -21 0 -2 -18
-4 -40 -4 -22 0 -40 -4 -40 -10 0 -5 5 -10 11 -10 25 0 -13 -28 -45 -34 -19
-4 -39 -13 -45 -20 -7 -8 -39 -24 -73 -37 l-61 -23 59 -12 c44 -9 102 -10 234
-3 96 5 184 11 196 14 39 9 296 35 343 35 54 0 130 23 178 54 34 22 42 47 21
63 -11 7 -80 31 -145 49 -24 6 -13 19 37 42 27 12 67 22 89 22 45 0 160 33
201 59 97 59 137 229 127 536 -7 195 -21 297 -68 475 -38 143 -53 190 -80 243
-23 45 -176 198 -221 223 -16 8 -28 18 -28 22 0 4 23 19 50 34 28 16 60 44 73
65 23 36 30 39 133 66 60 15 129 34 154 42 142 45 209 58 225 45 26 -21 13
-52 -35 -87 -107 -78 -141 -126 -168 -236 -10 -38 -10 -52 0 -70 9 -15 13 -67
13 -158 0 -148 11 -183 60 -195 14 -3 25 -9 25 -13 0 -15 100 -72 152 -88 149
-44 295 -18 338 61 7 14 19 26 26 26 14 0 64 61 64 78 0 6 9 29 21 51 11 22
21 59 22 83 2 59 -22 138 -41 138 -18 0 -82 47 -82 61 0 19 52 8 76 -16 33
-33 44 -32 44 4 0 23 -6 31 -30 40 -24 8 -30 16 -30 38 0 16 5 34 12 41 15 15
-7 59 -34 68 -10 3 -18 12 -18 19 0 24 -39 37 -85 30 -38 -5 -44 -3 -50 15 -3
11 -13 20 -21 20 -17 0 -17 -5 -4 -31 14 -25 6 -24 -20 3 -24 26 -26 38 -5 38
13 0 14 4 4 23 -6 12 -20 30 -30 40 -15 14 -17 22 -9 37 5 10 10 27 10 37 0
14 16 22 81 37 74 17 109 35 109 55 0 4 -6 16 -14 26 -13 18 -18 18 -67 7
-155 -36 -185 -36 -150 2 11 12 24 37 27 55 7 31 6 32 -13 20 -37 -22 -51 -6
-51 59 0 59 -14 102 -32 102 -6 0 -18 -8 -28 -18 -14 -14 -23 -16 -40 -9 -12
6 -22 16 -22 23 0 18 21 66 38 86 33 39 -47 67 -92 33z m-994 -462 c38 -35 6
-133 -44 -133 -51 0 -72 54 -43 110 22 42 56 52 87 23z m1108 7 c0 -5 -4 -10
-10 -10 -5 0 -10 5 -10 10 0 6 5 10 10 10 6 0 10 -4 10 -10z m23 -166 c9 -9
-16 -44 -30 -44 -14 0 -18 32 -6 43 8 9 28 9 36 1z m-93 -44 c-8 -5 -17 -7
-19 -4 -3 3 1 9 9 14 8 5 17 7 19 4 3 -3 -1 -9 -9 -14z m170 -25 c8 -9 21 -13
32 -9 21 6 61 -22 52 -37 -3 -5 -12 -2 -20 6 -21 20 -44 19 -44 -3 0 -26 -36
-45 -60 -32 -24 13 -26 47 -3 72 20 22 27 22 43 3z m-190 -84 c0 -6 -4 -13
-10 -16 -5 -3 -10 1 -10 9 0 9 5 16 10 16 6 0 10 -4 10 -9z m385 -9 c16 -11
36 -52 26 -52 -15 0 -79 29 -85 38 -12 20 36 31 59 14z m-75 -39 c0 -31 -19
-50 -44 -46 -36 7 -39 29 -9 58 28 25 53 20 53 -12z m-1530 -37 c-29 -26 -120
-47 -120 -27 0 14 61 34 120 40 13 1 13 -1 0 -13z m1638 -149 c9 -10 6 -18 -9
-31 -27 -23 -46 -7 -27 23 15 24 22 26 36 8z m-76 -100 c-2 -4 -8 -5 -13 -2
-11 7 -12 58 -1 69 7 8 21 -53 14 -67z m168 2 c0 -24 -17 -59 -29 -59 -4 0
-13 11 -21 24 -10 20 -10 27 1 40 21 23 49 20 49 -5z m-102 -120 c10 -16 10
-24 1 -35 -19 -23 -29 -16 -29 21 0 40 9 44 28 14z m-258 -99 c0 -5 -2 -10 -4
-10 -3 0 -8 5 -11 10 -3 6 -1 10 4 10 6 0 11 -4 11 -10z m150 -20 c17 -11 7
-24 -28 -35 -16 -4 -24 -2 -29 10 -10 28 27 44 57 25z m-1050 -1065 c0 -8 -4
-15 -9 -15 -13 0 -22 16 -14 24 11 11 23 6 23 -9z m-467 -92 c-7 -2 -21 -2
-30 0 -10 3 -4 5 12 5 17 0 24 -2 18 -5z"/>
<path d="M1690 2721 c-11 -22 1 -61 19 -61 16 0 33 29 29 52 -4 30 -34 35 -48
9z"/>
<path d="M1340 750 c0 -5 5 -10 10 -10 6 0 10 5 10 10 0 6 -4 10 -10 10 -5 0
-10 -4 -10 -10z"/>
<path d="M1380 750 c0 -5 11 -10 25 -10 14 0 25 5 25 10 0 6 -11 10 -25 10
-14 0 -25 -4 -25 -10z"/>
<path d="M1355 710 c-3 -6 1 -7 9 -4 18 7 21 14 7 14 -6 0 -13 -4 -16 -10z"/>
</g>
</svg>
